<?xml version="1.0" encoding="UTF-8"?>
<svg xmlns="http://www.w3.org/2000/svg" xmlns:xlink="http://www.w3.org/1999/xlink" width="143px" height="100px" viewBox="0 0 142 100" version="1.1">
<g id="surface1">
<path style=" stroke:none;fill-rule:nonzero;fill:rgb(97.647059%,97.647059%,97.647059%);fill-opacity:1;" d="M 49.867188 31.414062 C 50.183594 31.410156 50.496094 31.40625 50.820312 31.402344 C 51.332031 31.402344 51.332031 31.402344 51.851562 31.402344 C 52.207031 31.402344 52.558594 31.402344 52.921875 31.398438 C 53.667969 31.398438 54.417969 31.398438 55.164062 31.398438 C 56.296875 31.398438 57.429688 31.390625 58.5625 31.382812 C 68.421875 31.351562 68.421875 31.351562 72.09375 34.792969 C 74.324219 37.199219 75.03125 40.175781 74.964844 43.425781 C 74.738281 46.925781 73.59375 49.472656 71 51.863281 C 70.011719 52.71875 68.996094 53.027344 67.765625 53.425781 C 68.527344 55.058594 69.292969 56.691406 70.054688 58.324219 C 70.316406 58.878906 70.574219 59.433594 70.835938 59.992188 C 71.207031 60.789062 71.582031 61.589844 71.953125 62.386719 C 72.070312 62.636719 72.1875 62.882812 72.304688 63.136719 C 72.945312 64.511719 72.945312 64.511719 73.628906 65.863281 C 73.988281 66.640625 73.941406 67.304688 73.894531 68.152344 C 72.90625 68.226562 71.925781 68.277344 70.9375 68.320312 C 70.519531 68.355469 70.519531 68.355469 70.09375 68.390625 C 68.097656 68.457031 68.097656 68.457031 67.273438 67.699219 C 66.796875 66.960938 66.433594 66.207031 66.0625 65.410156 C 65.664062 64.648438 65.265625 63.882812 64.863281 63.117188 C 64.546875 62.488281 64.230469 61.855469 63.914062 61.21875 C 63.59375 60.570312 63.265625 59.925781 62.9375 59.277344 C 62.726562 58.859375 62.519531 58.441406 62.3125 58.023438 C 62.125 57.648438 61.9375 57.277344 61.746094 56.890625 C 61.296875 55.820312 61.296875 55.820312 60.953125 53.765625 C 58.480469 53.765625 56.011719 53.765625 53.460938 53.765625 C 53.460938 58.515625 53.460938 63.261719 53.460938 68.152344 C 51.664062 68.152344 49.867188 68.152344 48.015625 68.152344 C 47.617188 64.332031 47.617188 60.535156 47.617188 56.695312 C 47.617188 55.992188 47.613281 55.285156 47.613281 54.578125 C 47.609375 53.105469 47.609375 51.632812 47.609375 50.160156 C 47.609375 48.273438 47.605469 46.382812 47.601562 44.492188 C 47.597656 43.039062 47.597656 41.582031 47.597656 40.128906 C 47.59375 39.429688 47.59375 38.734375 47.589844 38.035156 C 47.589844 37.066406 47.589844 36.097656 47.589844 35.128906 C 47.589844 34.695312 47.589844 34.695312 47.585938 34.253906 C 47.597656 32.210938 47.753906 31.425781 49.867188 31.414062 Z M 53.460938 37.328125 C 53.460938 40.945312 53.460938 44.5625 53.460938 48.289062 C 55.027344 48.359375 56.59375 48.429688 58.207031 48.5 C 58.695312 48.527344 59.183594 48.550781 59.6875 48.574219 C 62.421875 48.683594 64.914062 48.757812 67.382812 47.410156 C 68.761719 45.820312 69.246094 43.984375 69.128906 41.886719 C 68.871094 40.320312 68.257812 39.4375 67.082031 38.355469 C 65.355469 37.457031 63.960938 37.183594 62.007812 37.226562 C 61.640625 37.230469 61.640625 37.230469 61.261719 37.234375 C 60.488281 37.238281 59.710938 37.25 58.933594 37.265625 C 58.402344 37.269531 57.871094 37.273438 57.339844 37.277344 C 56.046875 37.289062 54.753906 37.308594 53.460938 37.328125 Z M 53.460938 37.328125 "/>
<path style=" stroke:none;fill-rule:nonzero;fill:rgb(98.431373%,98.431373%,98.431373%);fill-opacity:1;" d="M 95.519531 31.335938 C 95.847656 31.332031 96.175781 31.324219 96.515625 31.320312 C 100.4375 31.339844 103.488281 32.832031 106.246094 35.617188 C 107.054688 36.703125 107.6875 37.824219 108.289062 39.042969 C 108.421875 39.304688 108.554688 39.566406 108.691406 39.835938 C 111.421875 45.59375 111.175781 52.703125 109.246094 58.648438 C 107.671875 62.773438 105.089844 65.988281 101.089844 67.902344 C 99.246094 68.625 97.429688 68.582031 95.476562 68.601562 C 94.992188 68.613281 94.992188 68.613281 94.496094 68.628906 C 90.929688 68.664062 88.261719 67.464844 85.558594 65.15625 C 81.675781 61.25 80.320312 55.257812 80.257812 49.914062 C 80.269531 45.980469 80.835938 42.1875 82.75 38.699219 C 82.957031 38.316406 82.957031 38.316406 83.167969 37.921875 C 85.949219 33.289062 90.269531 31.25 95.519531 31.335938 Z M 88.695312 40.054688 C 85.898438 43.976562 85.644531 49.546875 86.367188 54.152344 C 87.015625 56.921875 88.269531 59.871094 90.589844 61.605469 C 93.003906 62.976562 95.375 63.285156 98.070312 62.671875 C 100.667969 61.636719 102.308594 60.03125 103.519531 57.535156 C 105.382812 52.566406 105.34375 47.035156 103.195312 42.171875 C 102.058594 39.835938 100.671875 38.558594 98.414062 37.328125 C 94.871094 36.1875 91.171875 37.304688 88.695312 40.054688 Z M 88.695312 40.054688 "/>
<path style=" stroke:none;fill-rule:nonzero;fill:rgb(98.431373%,98.431373%,98.431373%);fill-opacity:1;" d="M 135.738281 32.679688 C 139.34375 35.066406 139.34375 35.066406 139.957031 36.300781 C 137.523438 39.660156 137.523438 39.660156 136.550781 40.410156 C 135.046875 40.226562 133.894531 39.289062 132.648438 38.484375 C 130.625 37.382812 128.238281 37.488281 125.996094 37.671875 C 124.800781 38.125 124.800781 38.125 123.953125 38.699219 C 123.726562 38.699219 123.503906 38.699219 123.269531 38.699219 C 122.847656 40.933594 122.847656 40.933594 123.355469 43.085938 C 125.664062 44.933594 128.574219 45.75 131.316406 46.746094 C 134.851562 48.039062 138.199219 49.320312 140.332031 52.636719 C 141.683594 55.558594 141.367188 59.628906 140.308594 62.597656 C 139.097656 65.207031 137.46875 66.675781 134.847656 67.808594 C 134.570312 67.933594 134.289062 68.058594 134 68.1875 C 132.175781 68.65625 130.382812 68.632812 128.507812 68.644531 C 128.128906 68.652344 127.75 68.664062 127.359375 68.675781 C 123.71875 68.699219 120.683594 67.582031 117.78125 65.390625 C 117.476562 65.167969 117.175781 64.945312 116.863281 64.714844 C 116.140625 64.058594 115.792969 63.570312 115.4375 62.671875 C 117.535156 59.777344 117.535156 59.777344 118.84375 58.5625 C 119.867188 59.050781 120.789062 59.628906 121.738281 60.253906 C 124.578125 61.972656 127.949219 62.855469 131.234375 62.15625 C 132.46875 61.808594 133.289062 61.507812 134.1875 60.574219 C 134.640625 59.183594 134.78125 57.953125 134.507812 56.507812 C 132.476562 53.632812 128.347656 52.789062 125.167969 51.773438 C 121.953125 50.695312 119.046875 49.152344 117.140625 46.234375 C 116.027344 43.734375 115.988281 40.15625 116.820312 37.542969 C 118.015625 34.964844 120.023438 33.0625 122.578125 31.875 C 126.472656 30.617188 132.085938 30.761719 135.738281 32.679688 Z M 135.738281 32.679688 "/>
<path style=" stroke:none;fill-rule:nonzero;fill:rgb(98.039216%,98.039216%,98.039216%);fill-opacity:1;" d="M 35.542969 46.148438 C 36.570312 47.03125 37.023438 47.675781 37.230469 49.023438 C 37.265625 50.890625 37.03125 51.96875 35.753906 53.425781 C 34.695312 54.367188 33.917969 54.527344 32.542969 54.453125 C 30.898438 54.207031 30.09375 53.582031 28.945312 52.398438 C 28.3125 51.125 28.453125 49.675781 28.605469 48.289062 C 29.183594 47.082031 29.601562 46.457031 30.734375 45.761719 C 32.601562 45.335938 33.851562 45.265625 35.542969 46.148438 Z M 35.542969 46.148438 "/>
<path style=" stroke:none;fill-rule:nonzero;fill:rgb(98.039216%,98.039216%,98.039216%);fill-opacity:1;" d="M 34.734375 59.589844 C 35.796875 60.164062 36.570312 60.882812 37.117188 61.984375 C 37.261719 63.542969 37.300781 64.957031 36.714844 66.417969 C 35.6875 67.589844 34.742188 68.042969 33.265625 68.492188 C 31.59375 68.492188 30.523438 67.894531 29.285156 66.78125 C 28.332031 65.292969 28.378906 63.695312 28.605469 61.984375 C 30.007812 59.566406 32.113281 59.167969 34.734375 59.589844 Z M 34.734375 59.589844 "/>
<path style=" stroke:none;fill-rule:nonzero;fill:rgb(98.039216%,98.039216%,98.039216%);fill-opacity:1;" d="M 20.773438 45.546875 C 21.933594 46.121094 22.625 46.949219 23.304688 48.050781 C 23.683594 49.875 23.390625 51.242188 22.582031 52.867188 C 21.644531 53.9375 21.144531 54.210938 19.75 54.453125 C 18.257812 54.472656 17.28125 54.28125 16.027344 53.445312 C 14.929688 52.34375 14.90625 51.613281 14.855469 50.085938 C 14.863281 48.6875 14.890625 47.773438 15.792969 46.683594 C 17.34375 45.308594 18.757812 45.269531 20.773438 45.546875 Z M 20.773438 45.546875 "/>
<path style=" stroke:none;fill-rule:nonzero;fill:rgb(97.647059%,97.647059%,97.647059%);fill-opacity:1;" d="M 35.136719 32.105469 C 37.035156 33.632812 37.035156 33.632812 37.214844 34.957031 C 37.277344 36.597656 37.171875 37.734375 36.097656 39.042969 C 35.078125 40.125 34.5625 40.390625 33.074219 40.582031 C 31.511719 40.5 30.546875 39.957031 29.285156 39.042969 C 28.339844 37.542969 28.339844 35.960938 28.605469 34.246094 C 29.183594 33.066406 29.996094 32.367188 31.136719 31.722656 C 32.738281 31.328125 33.667969 31.292969 35.136719 32.105469 Z M 35.136719 32.105469 "/>
<path style=" stroke:none;fill-rule:nonzero;fill:rgb(97.647059%,97.647059%,97.647059%);fill-opacity:1;" d="M 7.492188 31.847656 C 8.730469 32.6875 9.40625 33.617188 9.707031 35.09375 C 9.796875 37.011719 9.484375 38.261719 8.171875 39.726562 C 6.742188 40.59375 5.378906 40.734375 3.746094 40.410156 C 2.410156 39.621094 1.515625 38.816406 1.023438 37.328125 C 0.890625 35.722656 0.867188 34.910156 1.574219 33.453125 C 3.25 31.546875 5.101562 31.023438 7.492188 31.847656 Z M 7.492188 31.847656 "/>
<path style=" stroke:none;fill-rule:nonzero;fill:rgb(97.647059%,97.647059%,97.647059%);fill-opacity:1;" d="M 22.089844 32.449219 C 23.070312 33.492188 23.484375 34.210938 23.507812 35.664062 C 23.390625 37.40625 23.097656 38.488281 21.792969 39.726562 C 20.351562 40.582031 19.003906 40.699219 17.367188 40.410156 C 16.320312 39.824219 15.527344 39.105469 14.984375 38.015625 C 14.777344 36.445312 14.632812 34.90625 15.390625 33.476562 C 17.21875 31.253906 19.601562 30.921875 22.089844 32.449219 Z M 22.089844 32.449219 "/>
<path style=" stroke:none;fill-rule:nonzero;fill:rgb(98.039216%,98.039216%,98.039216%);fill-opacity:1;" d="M 7.152344 45.546875 C 8.285156 46.445312 9.40625 47.503906 9.648438 48.988281 C 9.683594 50.882812 9.414062 51.917969 8.171875 53.425781 C 7.242188 54.359375 6.496094 54.347656 5.21875 54.460938 C 3.757812 54.441406 2.824219 53.820312 1.765625 52.867188 C 1.140625 51.609375 0.976562 50.375 1.023438 48.972656 C 1.484375 47.714844 2.011719 46.726562 3.066406 45.890625 C 4.445312 45.425781 5.707031 45.316406 7.152344 45.546875 Z M 7.152344 45.546875 "/>
<path style=" stroke:none;fill-rule:nonzero;fill:rgb(98.039216%,98.039216%,98.039216%);fill-opacity:1;" d="M 7.152344 59.589844 C 8.234375 60.15625 8.980469 60.875 9.535156 61.984375 C 9.746094 63.460938 9.863281 64.839844 9.101562 66.15625 C 7.46875 68.082031 7.46875 68.082031 6.132812 68.21875 C 4.496094 68.253906 3.328125 68.261719 2.042969 67.125 C 1.058594 65.621094 0.804688 64.457031 1.023438 62.671875 C 2.261719 59.65625 4.101562 59.148438 7.152344 59.589844 Z M 7.152344 59.589844 "/>
<path style=" stroke:none;fill-rule:nonzero;fill:rgb(98.039216%,98.039216%,98.039216%);fill-opacity:1;" d="M 20.773438 59.589844 C 22.027344 60.203125 22.898438 60.984375 23.414062 62.304688 C 23.726562 64.015625 23.339844 65.269531 22.476562 66.78125 C 21.550781 67.761719 20.914062 68.109375 19.621094 68.492188 C 17.964844 68.492188 17.351562 68.085938 16.003906 67.125 C 14.777344 65.785156 14.792969 64.671875 14.835938 62.910156 C 15.066406 61.46875 15.621094 60.898438 16.6875 59.929688 C 17.96875 59.285156 19.378906 59.375 20.773438 59.589844 Z M 20.773438 59.589844 "/>
</g>
</svg>
